<svg width="80" height="80" viewBox="0 0 80 80" fill="none" xmlns="http://www.w3.org/2000/svg">
<rect x="0.5" y="0.5" width="79" height="79" rx="6.5" stroke="#F5EFD5"/>
<path d="M15.234 70H58.6383C57.4894 68.5957 56.7234 66.8085 56.7234 64.766V10H10V64.8936C10 67.7021 12.2979 70 15.234 70ZM25.3191 37.4468H28.1277V39.1064C28.1277 40 28.8936 40.766 29.7872 40.766H36.9362C37.3191 40.766 37.8298 40.6383 38.0851 40.2553C38.3404 40 38.5957 39.4894 38.5957 39.1064V35.7872C38.5957 34.8936 37.8298 34.1277 36.9362 34.1277H29.7872C27.3617 34.1277 25.3191 32.0851 25.3191 29.6596V26.3404C25.3191 23.9149 27.3617 21.8723 29.7872 21.8723H31.9574V18.1702H34.766V21.7447H36.9362C39.3617 21.7447 41.4043 23.7872 41.4043 26.2128V27.8723H38.5957V26.2128C38.5957 25.3191 37.8298 24.5532 36.9362 24.5532H29.7872C28.8936 24.5532 28.1277 25.3191 28.1277 26.2128V29.5319C28.1277 30.4255 28.8936 31.1915 29.7872 31.1915H36.9362C39.3617 31.1915 41.4043 33.234 41.4043 35.6596V38.9787C41.4043 40.1277 40.8936 41.2766 40.1277 42.1702C39.234 43.0638 38.2128 43.4468 36.9362 43.4468H34.766V47.0213H31.9574V43.4468H29.7872C27.3617 43.4468 25.3191 41.4043 25.3191 38.9787V37.4468ZM18.4255 52.6383H48.1702V55.4468H18.4255V52.6383ZM18.4255 60.4255H48.1702V63.234H18.4255V60.4255ZM68.2128 68.7234C68.3404 68.7234 68.3404 68.5957 68.4681 68.5957C68.4681 68.5957 68.4681 68.4681 68.5957 68.4681C69.4894 67.5745 70 66.2979 70 64.8936V29.4043H59.5319V64.766C59.5319 67.5745 61.8298 70 64.766 70C66.1702 70 67.3191 69.4894 68.2128 68.7234Z" fill="#F5EFD5"/>
</svg>
