<svg width="38" height="38" viewBox="0 0 38 38" fill="none" xmlns="http://www.w3.org/2000/svg">
<g clip-path="url(#clip0_20_22080)">
<path d="M24.529 22.0441L34.8117 22.0012C37.4628 22.4414 37.8315 26.9169 35.5309 28.0967L23.8619 28.1468C20.6863 27.3561 20.4177 22.6629 24.529 22.0441ZM5.20155 7.48229L24.9963 0L26.8883 4.05976L8.87918 10.8675L6.78476 10.8747L5.20155 7.48229ZM25.0061 23.7801C24.2396 23.7825 23.6209 24.4136 23.6233 25.192C23.6269 25.9706 24.2516 26.6018 25.0181 26.5994C25.7846 26.5947 26.4033 25.9587 26.3996 25.1803C26.3972 24.4016 25.7725 23.7755 25.0061 23.7801ZM29.3025 9.60657L33.8323 9.58756C34.5321 9.20794 34.4736 7.95546 33.713 7.71607L28.6301 7.73752C28.7815 8.25979 29.1201 9.0649 29.3025 9.60657ZM16.8599 10.8342L29.2215 10.7817C28.4776 8.82074 28.1998 8.06868 27.5858 6.57194C26.5356 7.00712 18.6587 10.1258 16.8599 10.8342ZM-0.00268555 12.1897C0.0323928 20.4346 0.0662556 28.6701 0.100075 36.9104L0.219333 37.3794L0.33616 37.6164L0.450598 37.7301L0.567425 37.8461L0.683036 37.967L0.914302 38.0831L34.9939 37.94C35.4659 37.6958 35.6339 37.5122 35.7984 36.9994L35.8802 28.9139C38.4931 27.5771 38.9577 22.9469 35.7331 21.4186L35.6969 12.511C35.7278 12.1434 35.518 11.626 34.9982 11.5751L2.39328 11.7062C2.65428 10.7077 3.03689 9.91459 4.74153 9.72362C4.46733 9.11908 4.0941 8.30919 3.90699 7.90288C1.66354 8.17839 0.388169 9.33879 -0.00268555 12.1897Z" fill="white"/>
</g>
<defs>
<clipPath id="clip0_20_22080">
<rect width="38" height="38" fill="white"/>
</clipPath>
</defs>
</svg>
