<svg width="80" height="80" viewBox="0 0 80 80" fill="none" xmlns="http://www.w3.org/2000/svg">
<rect x="0.5" y="0.5" width="79" height="79" rx="6.5" stroke="#F5EFD5"/>
<path d="M51.785 33.5721C55.3509 33.5721 58.2136 36.4406 58.2136 40.0006C58.2136 43.5605 55.3509 46.4291 51.785 46.4291C48.2192 46.4291 45.3565 43.5664 45.3565 40.0006C45.3565 36.4348 48.2251 33.5721 51.785 33.5721ZM19.6447 12.1456H43.2145C47.3662 12.1456 50.7199 15.4887 50.7199 19.6451V21.8212C49.9266 21.8727 49.1461 21.9723 48.3704 22.1223C47.863 22.2184 47.5009 22.6579 47.5009 23.1723V25.7491C46.5471 26.0409 45.6272 26.4252 44.7495 26.8986L42.9145 25.0636C42.5454 24.7003 41.977 24.6452 41.5528 24.9347C39.6498 26.2237 38.0093 27.87 36.7203 29.7672C36.4309 30.1914 36.4801 30.7656 36.8492 31.1288L38.6796 32.9639C38.2108 33.8404 37.8265 34.7614 37.5359 35.7153H34.9649C34.4505 35.7153 34.0111 36.0786 33.915 36.5848C33.6924 37.7074 33.5752 38.8452 33.5752 39.9947V40.0006C33.5752 41.1443 33.6924 42.2938 33.915 43.4164C34.0111 43.9238 34.4505 44.2859 34.9649 44.2859H37.5359C37.8277 45.2456 38.212 46.1619 38.6796 47.0431L36.8492 48.8735C36.4801 49.2426 36.4309 49.8109 36.7203 50.2351C38.0093 52.1382 39.6498 53.7775 41.5528 55.0677C41.977 55.3571 42.5454 55.3079 42.9145 54.9446L44.7495 53.1096C45.626 53.5783 46.5471 53.9638 47.5009 54.2533V56.8265C47.5009 57.3398 47.8642 57.7804 48.3704 57.8753C49.1461 58.0253 49.9277 58.1319 50.7199 58.1823V60.3584C50.7199 64.5148 47.3662 67.8579 43.2145 67.8579H19.6447C15.4883 67.8579 12.1452 64.5148 12.1452 60.3584V19.6451C12.1452 15.4887 15.4883 12.1456 19.6447 12.1456ZM19.6447 10.0023C14.3318 10.0023 10.002 14.3322 10.002 19.6451V60.3572C10.002 65.6702 14.3318 70 19.6447 70H43.2145C48.5274 70 52.8619 65.6702 52.8619 60.3572V58.1812C53.6494 58.1308 54.4251 58.0253 55.2009 57.8741C55.7083 57.7804 56.0703 57.3386 56.0703 56.8254V54.2521C57.0242 53.9627 57.9464 53.576 58.8276 53.1084L60.658 54.9435C61.0212 55.3067 61.5954 55.3559 62.0196 55.0665C63.9226 53.7775 65.562 52.137 66.8521 50.234C67.1416 49.8098 67.0865 49.2414 66.7232 48.8723L64.8929 47.042C65.3616 46.1619 65.7471 45.2397 66.0366 44.2847H68.6145C69.1278 44.2847 69.5684 43.9214 69.6633 43.4152C69.8859 42.2938 69.9914 41.1443 69.9973 39.9994C69.9973 38.8557 69.8918 37.7109 69.6727 36.5836C69.5789 36.0762 69.1325 35.7141 68.618 35.7141H66.0342C65.7495 34.7603 65.3581 33.8439 64.8905 32.9627L66.7209 31.1277C67.0842 30.7644 67.1392 30.1902 66.8498 29.766C65.5608 27.8689 63.9144 26.2225 62.0173 24.9335C61.5931 24.6441 61.0189 24.6991 60.6556 25.0624L58.8206 26.8974C57.9394 26.4229 57.023 26.0385 56.0692 25.7479V23.1652C56.0692 22.6508 55.7059 22.2055 55.1997 22.1106C54.4298 21.9653 53.6424 21.8645 52.8608 21.8188V19.6428C52.8608 14.3298 48.5251 10 43.2133 10L19.6447 10.0023ZM21.788 18.5788C20.0256 18.5788 18.5796 20.0248 18.5796 21.7872V26.0725C18.5796 27.8349 20.0256 29.2868 21.788 29.2868H26.0733C27.8357 29.2868 29.2875 27.8349 29.2875 26.0725V21.7872C29.2875 20.0248 27.8357 18.5788 26.0733 18.5788H21.788ZM21.788 36.7922H26.0733C26.6814 36.7922 27.1443 37.255 27.1443 37.8574V42.1426C27.1443 42.7508 26.6814 43.2137 26.0733 43.2137H21.788C21.1857 43.2137 20.7228 42.7508 20.7228 42.1426V37.8574C20.7228 37.255 21.1857 36.7922 21.788 36.7922ZM21.788 34.6489C20.0256 34.6489 18.5796 36.095 18.5796 37.8574V42.1426C18.5796 43.905 20.0256 45.3569 21.788 45.3569H26.0733C27.8357 45.3569 29.2875 43.905 29.2875 42.1426V37.8574C29.2875 36.095 27.8357 34.6489 26.0733 34.6489H21.788ZM21.788 52.8623H26.0733C26.6814 52.8623 27.1443 53.3252 27.1443 53.9275V58.2128C27.1443 58.821 26.6814 59.2838 26.0733 59.2838H21.788C21.1857 59.2838 20.7228 58.821 20.7228 58.2128V53.9275C20.7228 53.3252 21.1857 52.8623 21.788 52.8623ZM21.788 50.7191C20.0256 50.7191 18.5796 52.1651 18.5796 53.9275V58.2128C18.5796 59.9752 20.0256 61.4271 21.788 61.4271H26.0733C27.8357 61.4271 29.2875 59.9752 29.2875 58.2128V53.9275C29.2875 52.1651 27.8357 50.7191 26.0733 50.7191H21.788Z" fill="#F5EFD5"/>
</svg>
