<svg width="38" height="38" viewBox="0 0 38 38" fill="none" xmlns="http://www.w3.org/2000/svg">
<g clip-path="url(#clip0_20_22084)">
<path d="M31.853 4.51465H28.5755C27.6195 4.51465 26.8422 5.32028 26.8422 6.30435V34.0366C26.8422 35.0206 27.6195 35.8209 28.5755 35.8209H31.853C32.809 35.8209 33.5863 35.0206 33.5863 34.0366V6.30435C33.5863 5.32028 32.809 4.52006 31.853 4.51465ZM22.5667 12.5169C22.5351 13.8578 21.8996 15.1069 20.8439 15.8909C20.7598 15.9666 20.0875 16.4099 20.0717 16.5235C19.599 18.67 18.0601 20.3408 15.833 20.33C15.5074 20.3083 15.1765 20.3246 14.8508 20.3732C13.9946 21.1951 12.8759 21.6655 11.7046 21.7087C11.61 21.7087 11.5207 21.7087 11.4262 21.6979V25.9856C17.1461 26.1478 22.4669 29.0946 25.5185 31.1547V9.19166C24.6571 9.7702 23.5856 10.4353 22.3618 11.0895C22.5036 11.5491 22.5719 12.0303 22.5614 12.5169H22.5667ZM10.1131 21.3789C9.80844 21.2491 9.51955 21.0815 9.25168 20.8815L8.56361 20.3678C8.23795 20.3191 7.9123 20.3083 7.58665 20.3246C5.73778 20.33 4.10952 19.0864 3.57902 17.2642C3.54751 17.1993 3.34791 16.4207 3.26387 16.4045L2.71762 15.9882C2.36045 16.5559 2.17136 17.2156 2.17136 17.886V22.4387C2.18187 24.396 3.72609 25.9748 5.62748 25.9694H10.1183V21.3735L10.1131 21.3789ZM5.97414 27.332L7.75473 35.3991C8.15391 37.1996 9.89773 38.3297 11.6468 37.9187C13.2068 37.5511 14.2783 36.075 14.168 34.4313L13.7058 27.559C13.2646 27.4833 7.72846 27.3698 5.97414 27.3374V27.332ZM34.9047 15.3826V25.8234C37.7043 24.6717 39.0699 21.4059 37.9564 18.524C37.3996 17.0912 36.2966 15.9557 34.9047 15.3826ZM2.31843 11.495C1.92975 12.7062 2.34995 14.0363 3.35317 14.7878C3.80488 15.1123 4.45093 15.5178 4.60325 16.0963L4.86062 16.929C5.24405 18.1456 6.34707 18.9674 7.5919 18.962C8.19068 18.8647 8.80522 18.9728 9.34622 19.2594L10.0343 19.773C11.0375 20.5246 12.3979 20.5246 13.4011 19.773L14.0892 19.2594C14.5409 18.8809 15.3025 18.962 15.8435 18.962C17.0831 18.962 18.1861 18.1401 18.5643 16.929L18.8269 16.0963C18.9687 15.5178 19.6358 15.1177 20.0717 14.7878C21.075 14.0417 21.5004 12.7116 21.1117 11.495C20.8334 10.9381 20.7441 10.3001 20.8491 9.68369L21.1117 8.85102C21.4952 7.63986 21.075 6.30975 20.0717 5.55819L19.3837 5.04453C18.8899 4.72552 18.7324 3.94692 18.559 3.41704C18.1756 2.20048 17.0778 1.37862 15.8383 1.38403H14.9874C14.4096 1.42188 13.8371 0.897404 13.4011 0.56758C12.3979 -0.183985 11.0375 -0.183985 10.0343 0.56758C9.60359 1.01095 9.04158 1.29752 8.43755 1.38403H7.5919C6.35232 1.38403 5.2493 2.20588 4.86062 3.41704C4.77133 4.03884 4.48244 4.61197 4.04124 5.04453L3.34791 5.55819C2.34469 6.30435 1.9245 7.63986 2.31318 8.85102L2.57055 9.68369C2.79115 10.2352 2.47075 10.9651 2.31318 11.495H2.31843ZM14.9821 5.07697C15.2868 5.28244 15.376 5.70418 15.1712 6.01778L9.35673 15.069C9.15713 15.3826 8.74744 15.4691 8.4428 15.2637C8.13816 15.0582 8.05412 14.6364 8.25371 14.3228L14.0682 5.27162C14.2678 4.95802 14.6722 4.87151 14.9769 5.07697H14.9821ZM17.2302 12.5494C17.2197 13.966 16.0956 15.1069 14.7195 15.0906C13.3591 15.0798 12.2613 13.9444 12.2508 12.5494C12.2613 11.1327 13.3854 9.99188 14.7615 10.0081C16.1219 10.0189 17.2197 11.1544 17.2302 12.5494ZM8.68966 10.365C7.31352 10.3596 6.2 9.20247 6.2105 7.78044C6.21576 6.37464 7.32402 5.23377 8.68966 5.22837C10.0658 5.24459 11.1741 6.40708 11.1583 7.8237C11.1426 9.21869 10.0448 10.3487 8.68966 10.365ZM8.68966 6.58551C8.03836 6.59632 7.52362 7.14783 7.53412 7.81829C7.54463 8.47253 8.05412 8.99701 8.68966 9.00782C9.34097 8.99701 9.85571 8.4455 9.84521 7.77504C9.8347 7.1208 9.32521 6.59632 8.68966 6.58551ZM13.5692 12.5494C13.5745 13.2144 14.105 13.7551 14.751 13.7497C15.3918 13.7443 15.9118 13.209 15.917 12.5494C15.9118 11.8843 15.3813 11.3436 14.7352 11.349C14.0944 11.3544 13.5745 11.8897 13.5692 12.5494Z" fill="white"/>
</g>
<defs>
<clipPath id="clip0_20_22084">
<rect width="38" height="38" fill="white"/>
</clipPath>
</defs>
</svg>
