<svg width="80" height="80" viewBox="0 0 80 80" fill="none" xmlns="http://www.w3.org/2000/svg">
<rect x="0.5" y="0.5" width="79" height="79" rx="6.5" stroke="#F5EFD5"/>
<path fill-rule="evenodd" clip-rule="evenodd" d="M28.75 18.4296C28.75 13.5306 32.7298 9.55078 37.6288 9.55078C42.5279 9.55078 46.5077 13.5306 46.5077 18.4296C46.5077 23.3286 42.5279 27.3084 37.6288 27.3084C32.7298 27.3084 28.75 23.3286 28.75 18.4296ZM40.8774 41.6608C46.3301 47.0926 51.7514 52.5243 57.1727 57.9561C57.7472 58.5201 58.3426 59.1573 58.4157 59.9512C58.468 60.4735 58.2382 60.9853 57.8726 61.3509C57.6114 61.6016 57.2876 61.7792 56.922 61.8314C55.867 61.9672 54.9478 61.142 54.1957 60.3795L47.4791 53.5376L47.4415 53.4999C47.0772 53.1353 46.7002 52.758 46.2256 52.5661C45.7347 52.3676 45.0975 52.399 44.7423 52.7959C44.4081 53.1615 44.4081 53.7465 44.6065 54.2061C44.7977 54.6487 45.1438 54.9944 45.4863 55.3365L45.5258 55.376L45.5879 55.4376L45.5916 55.4412C47.9515 57.7804 50.3215 60.1296 52.6915 62.4686C53.2033 62.97 53.7361 63.5236 53.8719 64.2235C54.0808 65.3098 53.0571 66.4484 51.9499 66.3544C51.1142 66.2813 50.4457 65.6441 49.8503 65.0487C48.7378 63.9258 47.628 62.8029 46.5181 61.68L46.5133 61.6751L46.5084 61.6702C45.4018 60.5505 44.2952 59.4309 43.1859 58.3112C42.6323 57.7472 41.8489 57.1309 41.1281 57.4547C40.5432 57.7054 40.3552 58.4992 40.5536 59.1051C40.7521 59.7109 41.2326 60.181 41.6922 60.6302L46.4659 65.2472C46.8941 65.665 47.3433 66.1142 47.5313 66.6887C47.9283 67.9108 46.6748 69.3314 45.4109 69.0807C44.6797 68.9345 44.1156 68.3809 43.5933 67.8481C42.5765 66.8105 41.5623 65.7728 40.5481 64.7351L40.5437 64.7307L40.5415 64.7284C39.5262 63.6896 38.5109 62.6508 37.493 61.6121C37.0857 61.1942 36.6574 60.7555 36.1038 60.557C35.5501 60.3586 34.8398 60.463 34.516 60.9435C34.0042 61.7061 34.7145 62.688 35.3726 63.3252L38.5063 66.3648C39.1748 67.0125 39.8955 67.7646 39.8955 68.6942C39.906 69.6135 39.0808 70.4491 38.1616 70.4491C37.2423 70.4491 36.4798 69.7597 35.8322 69.1016C35.8322 69.0598 35.6128 68.8823 35.6128 68.8823L35.3517 68.6211L34.8503 68.1197L33.8475 67.1169C33.1796 66.4386 32.5117 65.7707 31.8438 65.1028L31.8434 65.1024L31.843 65.102L31.8419 65.1009C31.1733 64.4323 30.5046 63.761 29.836 63.0898C29.1676 62.4187 28.4992 61.7477 27.8308 61.0793C27.1623 60.4108 26.4937 59.7397 25.8252 59.0685C25.1567 58.3974 24.4882 57.7263 23.8196 57.0577C23.1513 56.379 22.483 55.7106 21.8146 55.0423L21.8141 55.0417C21.8 55.0259 21.7875 55.0125 21.7762 55.0005C21.7206 54.941 21.6974 54.9162 21.6887 54.8119V54.4463V38.5167C24.7911 38.5271 27.8935 38.5271 30.9958 38.5271C29.9826 39.6866 29.6588 41.3788 30.0662 42.8516C30.2019 43.3112 30.4004 43.7499 30.672 44.1469C31.821 45.8077 34.1504 46.5389 36.0411 45.8286C37.3664 45.3247 38.3405 44.2735 39.319 43.2174C39.8213 42.6754 40.3247 42.132 40.8774 41.6608ZM54.0703 34.9129C54.2584 35.0174 54.4882 35.08 54.7075 35.0696H60.7347V51.8245L57.8726 54.9164L41.8384 38.8718C41.5877 38.6211 41.2639 38.4853 40.9088 38.4853C40.5536 38.4853 40.2194 38.6316 39.9791 38.8718L35.9053 42.9456C35.4143 43.4261 34.8712 43.5306 34.4847 43.5306C34.0982 43.5306 33.555 43.4366 33.0745 42.9456C32.6985 42.5696 32.4896 42.0891 32.4896 41.5459C32.4896 41.0027 32.6985 40.5013 33.0745 40.1253L39.0599 34.1504C40.2507 32.9596 41.7862 32.2388 43.3948 32.1343C48.4297 31.8105 54.0181 34.8816 54.0703 34.9129ZM63.3357 34.2757C63.3357 32.4373 64.8294 30.9435 66.6678 30.9435C68.5063 30.9435 70 32.4373 70 34.2757V52.3572C70 54.1852 68.5063 55.6789 66.6678 55.6789C64.8294 55.6789 63.3357 54.1852 63.3357 52.3572V34.2757ZM13.468 59.2618L10 34.1713H19.0669V59.2618H13.468ZM37.1797 22.1899L42.5383 16.8312C43.1337 16.2463 43.1337 15.2853 42.5383 14.6899C41.9533 14.0945 40.9923 14.0945 40.3969 14.6899L36.1142 18.9726L34.8607 17.7191C34.2758 17.1237 33.3148 17.1237 32.7194 17.7191C32.1239 18.3145 32.1239 19.2651 32.7089 19.8709L35.0278 22.1899C35.3203 22.4823 35.6964 22.639 36.1038 22.639C36.5111 22.639 36.8976 22.4719 37.1797 22.1899Z" fill="#F5EFD5"/>
</svg>
