<svg width="34" height="34" viewBox="0 0 34 34" fill="none" xmlns="http://www.w3.org/2000/svg">
<g clip-path="url(#clip0_20_22086)">
<path d="M16.93 34C15.28 34 13.94 32.66 13.94 31.01C13.94 29.36 15.28 28.02 16.93 28.02C18.58 28.02 19.92 29.36 19.92 31.01C19.92 32.66 18.58 34 16.93 34ZM23.68 20.48C24.26 19.38 24.56 18.16 24.56 16.93C24.56 12.72 21.13 9.29 16.92 9.29C12.71 9.29 9.27999 12.72 9.27999 16.93C9.27999 21.14 12.71 24.57 16.92 24.57C18.16 24.57 19.37 24.27 20.47 23.69L23.27 24.53C23.36 24.56 23.46 24.57 23.56 24.57C23.82 24.57 24.07 24.47 24.26 24.28C24.52 24.02 24.62 23.64 24.51 23.29L23.67 20.49L23.68 20.48ZM19.08 19.92H14.76C14.21 19.92 13.76 19.47 13.76 18.92C13.76 18.37 14.21 17.92 14.76 17.92H19.08C19.63 17.92 20.08 18.37 20.08 18.92C20.08 19.47 19.63 19.92 19.08 19.92ZM19.08 15.94H14.76C14.21 15.94 13.76 15.49 13.76 14.94C13.76 14.39 14.21 13.94 14.76 13.94H19.08C19.63 13.94 20.08 14.39 20.08 14.94C20.08 15.49 19.63 15.94 19.08 15.94ZM6.29999 27.89H3.63999C1.62999 27.89 -0.0100098 26.25 -0.0100098 24.24V19.59C-0.0100098 17.58 1.62999 15.94 3.63999 15.94H6.29999C6.84999 15.94 7.29999 16.39 7.29999 16.94V26.9C7.29999 27.45 6.84999 27.9 6.29999 27.9V27.89ZM30.21 27.89H27.55C27 27.89 26.55 27.44 26.55 26.89V16.93C26.55 16.38 27 15.93 27.55 15.93H30.21C32.22 15.93 33.86 17.57 33.86 19.58V24.23C33.86 26.24 32.22 27.88 30.21 27.88V27.89ZM31.03 14C30.75 12.25 30.14 10.56 29.24 9.02C28.5 7.77 27.57 6.64 26.5 5.67L25.48 7.44C27.28 9.19 28.52 11.46 29 13.94H30.22C30.5 13.94 30.77 13.96 31.04 14H31.03ZM4.62999 9.03C3.72999 10.56 3.11999 12.25 2.83999 14.01C3.10999 13.97 3.37999 13.95 3.65999 13.95H4.87999C5.35999 11.48 6.58999 9.2 8.39999 7.45L7.37999 5.68C6.30999 6.65 5.37999 7.78 4.63999 9.03H4.62999ZM22.58 7.5C22.41 7.5 22.23 7.45 22.08 7.37C20.51 6.46 18.74 5.98 16.94 5.98C15.14 5.98 13.37 6.46 11.8 7.37C11.57 7.5 11.3 7.54 11.04 7.47C10.78 7.4 10.57 7.23 10.43 7.01L8.43999 3.55C8.16999 3.07 8.32999 2.47 8.79999 2.19C11.27 0.76 14.08 0 16.93 0C19.78 0 22.59 0.76 25.06 2.19C25.54 2.47 25.7 3.07 25.42 3.55L23.43 7.01C23.3 7.24 23.08 7.41 22.82 7.47C22.74 7.49 22.65 7.5 22.56 7.5H22.58ZM29.56 25.9C29.01 25.9 28.56 26.35 28.56 26.9V28.36C28.56 29.28 27.82 30.02 26.9 30.02H21.82C21.89 30.34 21.92 30.68 21.92 31.02C21.92 31.36 21.89 31.69 21.82 32.02H26.9C28.91 32.02 30.55 30.38 30.55 28.37V26.91C30.55 26.36 30.1 25.91 29.55 25.91L29.56 25.9Z" fill="white"/>
</g>
<defs>
<clipPath id="clip0_20_22086">
<rect width="34" height="34" fill="white"/>
</clipPath>
</defs>
</svg>
